<?xml version="1.0" encoding="UTF-8"?>
<svg version="1.1" xmlns="http://www.w3.org/2000/svg" width="480" height="480">
<path d="M0 0 C1.47894367 -0.00577776 2.95788013 -0.01372987 4.43680191 -0.02363622 C8.45591609 -0.04430629 12.47442867 -0.03428622 16.49354362 -0.01870513 C20.84538508 -0.00731321 25.19712869 -0.02489289 29.5489502 -0.03860474 C38.05642933 -0.06075862 46.56368705 -0.05607112 55.07117462 -0.04154153 C61.98956611 -0.03021825 68.90789584 -0.02873171 75.82629395 -0.03416061 C76.81351008 -0.03492678 77.80072621 -0.03569294 78.81785798 -0.03648233 C80.82379502 -0.03808106 82.82973204 -0.03970213 84.83566904 -0.04134528 C103.61533 -0.05557979 122.39486863 -0.03924619 141.17450953 -0.01234345 C157.26451288 0.00999322 173.35433583 0.00611245 189.44433594 -0.01693726 C208.15991558 -0.04373594 226.87538819 -0.05420671 245.59098434 -0.03887594 C247.58926136 -0.03728331 249.58753838 -0.03571145 251.58581543 -0.03416061 C253.0603394 -0.03300355 253.0603394 -0.03300355 254.56465173 -0.03182311 C261.4692749 -0.0275183 268.37382979 -0.03476628 275.27844238 -0.04655838 C283.70072041 -0.0606272 292.12276565 -0.05669173 300.54501724 -0.03015466 C304.83662466 -0.01707516 309.1278449 -0.01176296 313.41944885 -0.02840042 C317.35760445 -0.04343599 321.29501855 -0.0348914 325.23310804 -0.00851266 C326.64811846 -0.00298467 328.06319317 -0.00563826 329.47816133 -0.0178916 C343.98858904 -0.13378685 356.34783559 3.31130184 367.70605469 12.63491821 C369.1871875 13.79894165 369.1871875 13.79894165 370.69824219 14.98648071 C373.70797991 17.5154799 375.98380386 20.29737054 378.26855469 23.50991821 C378.99171875 24.49734009 379.71488281 25.48476196 380.45996094 26.50210571 C388.36113399 39.87940158 388.40611949 53.38073846 388.27368164 68.45108032 C388.27226872 70.71927356 388.27306791 72.98746909 388.27589417 75.25566101 C388.27732017 81.3704842 388.24806269 87.4848102 388.21302438 93.59951854 C388.18162438 100.00562521 388.17881941 106.41174511 388.17289734 112.81791687 C388.15915627 123.55641839 388.12799241 134.29470414 388.08325195 145.03311157 C388.0372489 156.08616238 388.00190986 167.13916385 387.98071289 178.19229126 C387.97939927 178.87535939 387.97808566 179.55842752 387.97673223 180.26219469 C387.97020632 183.68947125 387.96388795 187.11674816 387.95767272 190.5440253 C387.90596834 218.90778057 387.81764088 247.27133964 387.70605469 275.63491821 C392.98605469 275.63491821 398.26605469 275.63491821 403.70605469 275.63491821 C403.70605469 276.62491821 403.70605469 277.61491821 403.70605469 278.63491821 C398.42605469 278.63491821 393.14605469 278.63491821 387.70605469 278.63491821 C387.70605469 281.27491821 387.70605469 283.91491821 387.70605469 286.63491821 C391.99605469 286.63491821 396.28605469 286.63491821 400.70605469 286.63491821 C400.70605469 301.81491821 400.70605469 316.99491821 400.70605469 332.63491821 C396.41605469 332.63491821 392.12605469 332.63491821 387.70605469 332.63491821 C387.70605469 335.60491821 387.70605469 338.57491821 387.70605469 341.63491821 C392.98605469 341.63491821 398.26605469 341.63491821 403.70605469 341.63491821 C403.70605469 342.62491821 403.70605469 343.61491821 403.70605469 344.63491821 C398.42605469 344.63491821 393.14605469 344.63491821 387.70605469 344.63491821 C387.73223877 346.34365112 387.75842285 348.05238403 387.78540039 349.81289673 C387.86671121 355.52035822 387.92378478 361.2278001 387.96511555 366.9356699 C387.99097926 370.38938422 388.02593713 373.84245996 388.08325195 377.29580688 C388.39965361 396.88392484 388.64976088 412.86663207 375.70605469 428.63491821 C374.54203125 430.11605103 374.54203125 430.11605103 373.35449219 431.62710571 C370.825493 434.63684344 368.04360237 436.91266738 364.83105469 439.19741821 C363.84363281 439.92058228 362.85621094 440.64374634 361.83886719 441.38882446 C351.10668767 447.83110496 339.68639888 449.37612934 327.41210938 449.26983643 C325.9331657 449.27561419 324.45422924 449.2835663 322.97530746 449.29347265 C318.95619328 449.31414272 314.93768071 449.30412265 310.91856575 449.28854156 C306.5667243 449.27714963 302.21498068 449.29472932 297.86315918 449.30844116 C289.35568005 449.33059504 280.84842232 449.32590755 272.34093475 449.31137796 C265.42254327 449.30005467 258.50421354 449.29856814 251.58581543 449.30399704 C250.10499123 449.30514629 250.10499123 449.30514629 248.59425139 449.30631875 C246.58831436 449.30791749 244.58237734 449.30953856 242.57644033 449.31118171 C223.79677937 449.32541622 205.01724074 449.30908262 186.23759985 449.28217988 C170.14759649 449.2598432 154.05777354 449.26372398 137.96777344 449.28677368 C119.2521938 449.31357236 100.53672118 449.32404313 81.82112503 449.30871236 C79.82284802 449.30711973 77.82457099 449.30554788 75.82629395 449.30399704 C74.35176998 449.30283997 74.35176998 449.30283997 72.84745765 449.30165953 C65.94283448 449.29735473 59.03827958 449.3046027 52.13366699 449.31639481 C43.71138896 449.33046362 35.28934373 449.32652816 26.86709213 449.29999109 C22.57548472 449.28691159 18.28426448 449.28159938 13.99266052 449.29823685 C10.05450493 449.31327241 6.11709082 449.30472783 2.17900133 449.27834909 C0.76399091 449.27282109 -0.6510838 449.27547468 -2.06605196 449.28772803 C-16.57647966 449.40362328 -28.93572622 445.95853458 -40.29394531 436.63491821 C-41.77507813 435.47089478 -41.77507813 435.47089478 -43.28613281 434.28335571 C-46.29587054 431.75435653 -48.57169448 428.97246589 -50.85644531 425.75991821 C-51.57960938 424.77249634 -52.30277344 423.78507446 -53.04785156 422.76773071 C-59.43166591 412.14025074 -61.0339601 400.78564402 -60.95336914 388.62149048 C-60.96185057 387.19071064 -60.97250743 385.75994234 -60.98513794 384.32919312 C-61.01295167 380.49739361 -61.01087278 376.66616016 -61.0028441 372.83429074 C-60.99969056 368.81038992 -61.0248358 364.78666063 -61.04679871 360.76283264 C-61.08405334 353.16657502 -61.09637561 345.57049633 -61.09942311 337.97415632 C-61.10413426 329.31608865 -61.13712307 320.65819799 -61.17232096 312.00020897 C-61.24401252 294.21179011 -61.27973034 276.42346958 -61.29394531 258.63491821 C-66.24394531 258.63491821 -71.19394531 258.63491821 -76.29394531 258.63491821 C-76.29394531 257.64491821 -76.29394531 256.65491821 -76.29394531 255.63491821 C-71.01394531 255.63491821 -65.73394531 255.63491821 -60.29394531 255.63491821 C-60.29394531 252.66491821 -60.29394531 249.69491821 -60.29394531 246.63491821 C-63.26394531 246.63491821 -66.23394531 246.63491821 -69.29394531 246.63491821 C-69.29394531 231.45491821 -69.29394531 216.27491821 -69.29394531 200.63491821 C-66.32394531 200.63491821 -63.35394531 200.63491821 -60.29394531 200.63491821 C-60.62394531 197.66491821 -60.95394531 194.69491821 -61.29394531 191.63491821 C-66.24394531 191.63491821 -71.19394531 191.63491821 -76.29394531 191.63491821 C-76.29394531 190.64491821 -76.29394531 189.65491821 -76.29394531 188.63491821 C-71.34394531 188.63491821 -66.39394531 188.63491821 -61.29394531 188.63491821 C-61.29252029 186.87671249 -61.29109528 185.11850677 -61.28962708 183.30702209 C-61.27292138 166.69703516 -61.23033259 150.08730194 -61.16185474 133.47744656 C-61.12730899 124.93916956 -61.10186297 116.40105227 -61.09838867 107.86270142 C-61.0953342 100.41432196 -61.0746461 92.96622768 -61.03342074 85.51795822 C-61.01222246 81.57981859 -60.99942142 77.64208302 -61.00779152 73.70388603 C-61.01541635 69.98458349 -60.99917393 66.26609394 -60.96588516 62.54693985 C-60.95392196 60.55671972 -60.96612957 58.56639826 -60.97950745 56.57618713 C-60.80967117 42.97988708 -56.99614237 31.23611166 -48.29394531 20.63491821 C-47.12992188 19.1537854 -47.12992188 19.1537854 -45.94238281 17.64273071 C-43.41338363 14.63299299 -40.63149299 12.35716904 -37.41894531 10.07241821 C-36.43152344 9.34925415 -35.44410156 8.62609009 -34.42675781 7.88101196 C-23.69457829 1.43873146 -12.2742895 -0.10629292 0 0 Z " fill="#8F0000" transform="translate(76.2939453125,15.365081787109375)"/>
<path d="M0 0 C52.09199705 -1.22890688 96.813221 12.0280783 135.70166016 46.50878906 C144.997619 54.7402842 154.69770126 62.06776595 165 69 C166.30324219 69.89332031 166.30324219 69.89332031 167.6328125 70.8046875 C191.09511711 85.9284727 219.4176759 90.7295584 246.6875 92.625 C248.5644925 92.75986983 250.4414461 92.89528206 252.31835938 93.03125 C256.87848185 93.36042296 261.43906813 93.68224712 266 94 C266.05115967 95.01247803 266.10231934 96.02495605 266.1550293 97.06811523 C266.23187815 98.4191298 266.3091294 99.77012151 266.38671875 101.12109375 C266.41922729 101.78572632 266.45173584 102.45035889 266.48522949 103.13513184 C267.15899448 114.40946596 271.90456912 123.51634843 279.9375 131.32421875 C286.90342694 136.98403439 294.33727326 139.07735179 303.16723633 139.20532227 C304.38812454 139.22526749 305.60901276 139.24521271 306.86689758 139.26576233 C308.17539169 139.28247482 309.4838858 139.29918732 310.83203125 139.31640625 C312.19252628 139.3369958 313.55301519 139.35799278 314.91349792 139.37937927 C318.48248323 139.43439347 322.05152427 139.48389317 325.62060547 139.53222656 C329.26730266 139.58259306 332.91391959 139.6381998 336.56054688 139.69335938 C343.70696151 139.80068804 350.85344825 139.90218843 358 140 C358.1254736 144.99462149 358.21520085 149.98828654 358.2746582 154.98413086 C358.29949431 156.67635109 358.33337591 158.36846769 358.37719727 160.06030273 C358.78208201 176.11755521 356.5219888 189.18189923 346 202 C344.83597656 203.48113281 344.83597656 203.48113281 343.6484375 204.9921875 C341.11943832 208.00192523 338.33754768 210.27774917 335.125 212.5625 C334.13757813 213.28566406 333.15015625 214.00882813 332.1328125 214.75390625 C321.40063298 221.19618675 309.98034419 222.74121113 297.70605469 222.63491821 C296.22711102 222.64069597 294.74817456 222.64864808 293.26925278 222.65855443 C289.2501386 222.67922451 285.23162602 222.66920444 281.21251106 222.65362334 C276.86066961 222.64223142 272.508926 222.6598111 268.15710449 222.67352295 C259.64962536 222.69567683 251.14236763 222.69098933 242.63488007 222.67645974 C235.71648858 222.66513646 228.79815885 222.66364992 221.87976074 222.66907883 C220.39893654 222.67022807 220.39893654 222.67022807 218.88819671 222.67140054 C216.88225967 222.67299928 214.87632265 222.67462034 212.87038565 222.6762635 C194.09072469 222.690498 175.31118605 222.67416441 156.53154516 222.64726166 C140.4415418 222.62492499 124.35171886 222.62880577 108.26171875 222.65185547 C89.54613911 222.67865415 70.83066649 222.68912492 52.11507034 222.67379415 C50.11679333 222.67220152 48.1185163 222.67062966 46.12023926 222.66907883 C45.13722328 222.66830745 44.1542073 222.66753607 43.14140296 222.66674132 C36.23677979 222.66243652 29.3322249 222.66968449 22.4276123 222.68147659 C14.00533427 222.69554541 5.58328904 222.69160995 -2.83896255 222.66507287 C-7.13056997 222.65199338 -11.42179021 222.64668117 -15.71339417 222.66331863 C-19.65154976 222.6783542 -23.58896387 222.66980961 -27.52705336 222.64343087 C-28.94206378 222.63790288 -30.35713848 222.64055647 -31.77210665 222.65280981 C-46.28253435 222.76870506 -58.64178091 219.32361637 -70 210 C-70.98742187 209.22398437 -71.97484375 208.44796875 -72.9921875 207.6484375 C-76.00192523 205.11943832 -78.27774917 202.33754768 -80.5625 199.125 C-81.28566406 198.13757813 -82.00882813 197.15015625 -82.75390625 196.1328125 C-91.20662147 181.65045614 -90.68443438 166.9564776 -90.50696969 150.64181256 C-90.47533649 147.23464375 -90.47274678 143.82744377 -90.46684265 140.42015076 C-90.45141114 133.99244428 -90.41053091 127.56517199 -90.3600952 121.1376552 C-90.30386474 113.80981805 -90.27663131 106.48195823 -90.25161803 99.15395844 C-90.19960281 84.10239863 -90.11187332 69.05124311 -90 54 C-88.91577507 53.99786247 -88.91577507 53.99786247 -87.80964661 53.99568176 C-80.94097927 53.97772627 -74.07281589 53.93574587 -67.20447254 53.86790943 C-63.67472433 53.83386422 -60.14539856 53.80856505 -56.61547852 53.80444336 C-52.54132431 53.79927884 -48.46842048 53.75393548 -44.39453125 53.70703125 C-43.1492012 53.7109639 -41.90387115 53.71489655 -40.62080383 53.71894836 C-29.42456228 53.53571451 -18.85195741 50.89235945 -10.64453125 42.875 C-2.42200756 33.50015113 -0.58366725 23.0542835 -0.3125 10.875 C-0.27833984 9.823125 -0.24417969 8.77125 -0.20898438 7.6875 C-0.12745368 5.12510687 -0.05800272 2.56301503 0 0 Z " fill="#8F0000" transform="translate(106,242)"/>
<path d="M0 0 C0.65411169 -0.00453111 1.30822338 -0.00906223 1.98215663 -0.01373065 C4.16053062 -0.02632839 6.33865309 -0.02475729 8.51705933 -0.02310181 C10.08466409 -0.02909015 11.65226592 -0.0358964 13.21986389 -0.04345703 C17.4701946 -0.06109787 21.72044473 -0.06581174 25.97080851 -0.0670886 C28.63066216 -0.0685124 31.29049549 -0.07278643 33.95034409 -0.07808304 C43.2426152 -0.09658037 52.53482901 -0.10475444 61.82711792 -0.10317993 C70.46695524 -0.10198017 79.10654208 -0.12305077 87.74631608 -0.15466726 C95.18012061 -0.18089381 102.61384369 -0.19154449 110.04769409 -0.19026911 C114.48026137 -0.18976114 118.91260621 -0.19535184 123.34512711 -0.21662521 C127.5198486 -0.23611422 131.69413799 -0.23605999 135.8688755 -0.22159195 C137.39255092 -0.21951555 138.91625412 -0.22413423 140.43988228 -0.23631287 C152.64928224 -0.32750434 163.58541949 1.08698587 173.20797729 9.20492554 C183.38249203 19.49638871 185.37527253 29.70070068 185.48532104 43.59164429 C185.49339279 44.57429764 185.50146454 45.55695099 185.50978088 46.56938171 C185.52356048 48.6427843 185.53430978 50.71620899 185.54220581 52.78964233 C185.55371315 54.89094788 185.57414509 56.99222448 185.60372925 59.09335327 C186.00699756 87.78848442 186.00699756 87.78848442 175.24703979 99.26742554 C168.85918884 105.7215405 161.61509799 110.98496551 152.2840023 111.3988533 C150.53917281 111.4033153 150.53917281 111.4033153 148.75909424 111.40786743 C147.78449861 111.41232412 147.78449861 111.41232412 146.79021418 111.41687083 C144.61483957 111.42553657 142.43952013 111.42706429 140.26412964 111.42855835 C138.70342899 111.43318815 137.14272946 111.43821303 135.58203125 111.44360352 C131.3420629 111.45671673 127.10211038 111.46317075 122.86212492 111.46761417 C120.21067944 111.47054755 117.55923826 111.47465293 114.90779495 111.47911835 C106.60508379 111.49279244 98.30238249 111.50245868 89.99966085 111.50632024 C80.42891293 111.5107964 70.85830815 111.5283241 61.28760374 111.55732083 C53.88190495 111.57897571 46.47624632 111.5890266 39.07051623 111.59036136 C34.65143047 111.59140696 30.23247928 111.59726208 25.81342697 111.61518097 C21.65193817 111.63172686 17.49068413 111.63378573 13.32917404 111.62504196 C11.80788542 111.62427498 10.28658385 111.62856933 8.76532745 111.63850021 C-5.11759719 111.72375993 -14.69894093 109.96742199 -24.88577271 100.22836304 C-29.80652549 95.08971714 -32.67673594 90.05914221 -34.75296021 83.26742554 C-34.94889771 82.6602771 -35.14483521 82.05312866 -35.34671021 81.42758179 C-35.93875384 78.27950362 -35.84507878 75.21623109 -35.81546021 72.01742554 C-35.80643677 70.75414429 -35.79741333 69.49086304 -35.78811646 68.18930054 C-35.77071411 66.74297241 -35.77071411 66.74297241 -35.75296021 65.26742554 C-53.19049841 66.76718813 -67.86120273 71.10629887 -79.70828247 84.66781616 C-83.13166327 89.02031273 -85.7036031 93.77384641 -88.31546021 98.64242554 C-99.68954803 119.52050576 -99.68954803 119.52050576 -106.56546021 126.82992554 C-107.31440552 127.6355896 -108.06335083 128.44125366 -108.83499146 129.27133179 C-110.12747986 130.61646738 -111.43388552 131.94835085 -112.75296021 133.26742554 C-110.86577271 133.63867554 -110.86577271 133.63867554 -108.94046021 134.01742554 C-107.56567505 134.29779663 -107.56567505 134.29779663 -106.16311646 134.58383179 C-103.63159473 135.09129605 -101.09995799 135.57469447 -98.56155396 136.04476929 C-86.50925973 138.34612856 -75.18701274 141.83293517 -63.75296021 146.26742554 C-63.04542603 146.53925659 -62.33789185 146.81108765 -61.60891724 147.09115601 C-40.61823627 155.29747203 -23.89113627 168.50311404 -7.0954895 183.21835327 C28.28453227 214.16356643 62.75543635 223.11030596 109.24703979 225.26742554 C109.18903198 224.25164429 109.13102417 223.23586304 109.07125854 222.18930054 C108.59127607 210.22912925 110.51621759 201.4144483 118.30953979 191.89242554 C125.73321898 184.19609036 134.57687269 180.49257067 145.15133667 180.18217468 C148.71363859 180.15171178 152.27448131 180.1551119 155.83688354 180.16976929 C157.78637657 180.17189171 157.78637657 180.17189171 159.7752533 180.17405701 C163.20947232 180.1778522 166.64364821 180.18765645 170.07785034 180.19876099 C173.5906211 180.20903998 177.10339892 180.21356846 180.61618042 180.21859741 C187.49315292 180.22928178 194.37008984 180.24685387 201.24703979 180.26742554 C201.24703979 186.53742554 201.24703979 192.80742554 201.24703979 199.26742554 C206.52703979 199.26742554 211.80703979 199.26742554 217.24703979 199.26742554 C217.24703979 200.25742554 217.24703979 201.24742554 217.24703979 202.26742554 C211.96703979 202.26742554 206.68703979 202.26742554 201.24703979 202.26742554 C201.24703979 204.90742554 201.24703979 207.54742554 201.24703979 210.26742554 C205.53703979 210.26742554 209.82703979 210.26742554 214.24703979 210.26742554 C214.24703979 225.44742554 214.24703979 240.62742554 214.24703979 256.26742554 C209.95703979 256.26742554 205.66703979 256.26742554 201.24703979 256.26742554 C201.24703979 259.23742554 201.24703979 262.20742554 201.24703979 265.26742554 C206.52703979 265.26742554 211.80703979 265.26742554 217.24703979 265.26742554 C217.24703979 266.25742554 217.24703979 267.24742554 217.24703979 268.26742554 C211.96703979 268.26742554 206.68703979 268.26742554 201.24703979 268.26742554 C201.24703979 275.52742554 201.24703979 282.78742554 201.24703979 290.26742554 C193.44908093 290.33545838 185.65128706 290.3903889 177.85311222 290.42286205 C174.23129732 290.43845502 170.60969766 290.45957506 166.98800659 290.4937439 C163.48666229 290.52656703 159.98552379 290.54432633 156.4840374 290.55205727 C154.51166362 290.56022059 152.53937154 290.58360265 150.56712341 290.60731506 C137.69544288 290.6097046 128.40267277 287.32160357 118.99703979 278.45492554 C111.66985454 270.81166562 108.93544985 261.87225741 109.12203979 251.32992554 C109.13106323 250.64607788 109.14008667 249.96223022 109.14938354 249.25765991 C109.17265022 247.59409267 109.20850813 245.93070923 109.24703979 244.26742554 C108.45426636 244.29062866 107.66149292 244.31383179 106.84469604 244.33773804 C53.55927189 245.16204294 13.06830591 227.53978082 -26.39309692 192.82455444 C-38.63668661 182.05510933 -51.6673525 172.68933947 -66.75296021 166.26742554 C-67.50351685 165.94532104 -68.25407349 165.62321655 -69.02737427 165.29135132 C-96.59137595 153.82556089 -127.20530106 151.4155849 -156.75296021 150.26742554 C-156.72153931 151.21827026 -156.72153931 151.21827026 -156.68948364 152.18832397 C-155.87366483 180.61806041 -155.87366483 180.61806041 -165.84671021 192.30258179 C-173.54677194 200.23932575 -182.46737473 204.38230839 -193.60134888 204.7215271 C-196.12463087 204.72090245 -198.6479763 204.69882207 -201.17092896 204.65805054 C-202.5228338 204.65056949 -203.87474965 204.6448854 -205.22666931 204.64089966 C-208.74661382 204.62578933 -212.26587453 204.58663917 -215.78555298 204.54208374 C-219.39243322 204.50081088 -222.99942638 204.48282109 -226.60647583 204.46273804 C-233.65560681 204.42012606 -240.70416627 204.34990096 -247.75296021 204.26742554 C-247.75296021 197.00742554 -247.75296021 189.74742554 -247.75296021 182.26742554 C-252.70296021 182.26742554 -257.65296021 182.26742554 -262.75296021 182.26742554 C-262.75296021 181.27742554 -262.75296021 180.28742554 -262.75296021 179.26742554 C-257.47296021 179.26742554 -252.19296021 179.26742554 -246.75296021 179.26742554 C-246.75296021 176.29742554 -246.75296021 173.32742554 -246.75296021 170.26742554 C-249.72296021 170.26742554 -252.69296021 170.26742554 -255.75296021 170.26742554 C-255.75296021 155.08742554 -255.75296021 139.90742554 -255.75296021 124.26742554 C-252.78296021 124.26742554 -249.81296021 124.26742554 -246.75296021 124.26742554 C-247.08296021 121.29742554 -247.41296021 118.32742554 -247.75296021 115.26742554 C-252.70296021 115.26742554 -257.65296021 115.26742554 -262.75296021 115.26742554 C-262.75296021 114.27742554 -262.75296021 113.28742554 -262.75296021 112.26742554 C-257.80296021 112.26742554 -252.85296021 112.26742554 -247.75296021 112.26742554 C-247.75296021 106.32742554 -247.75296021 100.38742554 -247.75296021 94.26742554 C-240.02411378 94.15371973 -232.29573809 94.06230919 -224.56628132 94.00836468 C-220.97576222 93.98245222 -217.38585302 93.94739984 -213.79568481 93.89022827 C-210.32021935 93.83524008 -206.84533424 93.8058677 -203.36946678 93.79303932 C-201.42152609 93.77952776 -199.47381359 93.74060526 -197.52622986 93.70094299 C-185.01277373 93.69707031 -174.89400423 97.03809525 -165.84671021 105.86508179 C-159.28990295 113.38828414 -156.41190256 121.37675376 -156.75296021 131.26742554 C-141.35275782 127.79483088 -126.90349611 123.05860949 -117.94436646 109.13851929 C-117.0574322 107.66701098 -116.18138831 106.18889238 -115.31546021 104.70492554 C-114.84519409 103.91916138 -114.37492798 103.13339722 -113.89041138 102.32382202 C-111.37812848 98.10618011 -108.94007118 93.84989524 -106.54031372 89.56747437 C-95.21033742 69.37327417 -81.46780387 54.78648381 -58.75296021 48.26742554 C-51.06975801 46.45070778 -43.62815109 45.98838334 -35.75296021 46.26742554 C-35.83997192 44.63547241 -35.83997192 44.63547241 -35.92874146 42.97055054 C-36.37611499 31.02240379 -34.88922844 21.94599243 -27.06546021 12.39242554 C-19.68498636 4.70501327 -10.72265792 0.03081844 0 0 Z " fill="#FEFDFD" transform="translate(262.7529602050781,91.73257446289063)"/>
<path d="M0 0 C1.26447464 -0.00708481 2.52894928 -0.01416962 3.83174133 -0.02146912 C5.23074377 -0.01917532 6.62974586 -0.01666562 8.02874756 -0.01396179 C9.50402586 -0.0183097 10.9793019 -0.02349311 12.45457458 -0.02944946 C16.46097087 -0.04284565 20.46727285 -0.0434172 24.47368717 -0.04088616 C27.82087868 -0.03981637 31.16805111 -0.04470028 34.51523852 -0.04949158 C42.41575213 -0.06058998 50.3162182 -0.06102302 58.21673584 -0.05497742 C66.35783726 -0.04894324 74.49876561 -0.06123368 82.6398375 -0.08254749 C89.63532557 -0.10018641 96.63075867 -0.10616104 103.62626815 -0.10290974 C107.80159568 -0.1010996 111.9767999 -0.10370564 116.15210724 -0.11762428 C120.08215071 -0.13023452 124.01192558 -0.1282285 127.9419651 -0.11521339 C129.38023534 -0.11285459 130.81852466 -0.11555726 132.25677299 -0.12383652 C148.71860429 -0.21172526 148.71860429 -0.21172526 155.30926514 5.34077454 C157.52337515 9.56350708 157.39511753 13.27732799 157.33636475 17.97944641 C157.33781998 18.91494324 157.33927521 19.85044006 157.34077454 20.81428528 C157.33911805 22.78782777 157.32758486 24.76138352 157.30682373 26.7348175 C157.27786876 29.75051411 157.28622029 32.76445178 157.29925537 35.78022766 C157.29301751 37.7008091 157.28462619 39.621385 157.27386475 41.54194641 C157.27680038 42.44102722 157.27973602 43.34010803 157.28276062 44.26643372 C157.21092856 49.04824154 157.02151134 52.42013411 153.840271 56.26069641 C144.4670237 60.71298888 133.1162854 60.55551834 122.97454834 60.53535461 C121.61808495 60.5397127 120.261624 60.54489946 118.90516663 60.55084229 C115.25447546 60.56412053 111.6038885 60.56482394 107.95317793 60.56227899 C104.89402691 60.56120239 101.83489639 60.56610972 98.7757498 60.57088441 C91.55635555 60.58193925 84.33701335 60.58243868 77.11761475 60.57637024 C69.69040372 60.57032293 62.26338177 60.58266982 54.83620298 60.60394031 C48.43588129 60.62159032 42.03561964 60.62755262 35.63527453 60.62430257 C31.82274952 60.6224962 28.01035967 60.62506164 24.1978569 60.63901711 C20.61407632 60.6516478 17.03058997 60.64960235 13.44681358 60.63660622 C11.51752826 60.63313731 9.58823371 60.64437742 7.65898132 60.65617371 C-7.245255 60.56651749 -7.245255 60.56651749 -12.83704567 55.84418201 C-15.1120147 53.12064221 -15.2933774 50.47179759 -15.3526001 47.06806946 C-15.36866302 46.22676987 -15.38472595 45.38547028 -15.40127563 44.51867676 C-15.44589174 40.67658956 -15.48678353 36.83467168 -15.50982666 32.99238586 C-15.52638524 30.96818036 -15.55367395 28.9440333 -15.59185791 26.92012024 C-15.64671842 23.99557795 -15.66851372 21.07240319 -15.6831665 18.14741516 C-15.70583588 17.24722153 -15.72850525 16.34702789 -15.75186157 15.41955566 C-15.73758294 11.15728419 -15.57291974 8.18725874 -12.87701416 4.76777649 C-8.56530677 0.78961627 -5.85826838 0.01093845 0 0 Z " fill="#940D0D" transform="translate(266.15972900390625,116.73930358886719)"/>
<path d="M0 0 C1.1810733 0.00007553 2.36214661 0.00015106 3.57901001 0.00022888 C4.85924042 0.00539017 6.13947083 0.01055145 7.45849609 0.01586914 C8.76523285 0.01728409 10.0719696 0.01869904 11.41830444 0.02015686 C14.89369617 0.02397645 18.36904616 0.03380197 21.84442139 0.04486084 C25.39025305 0.05508696 28.93609144 0.05965706 32.48193359 0.06469727 C39.44028408 0.07542473 46.39860683 0.09249447 53.35693359 0.11352539 C53.35693359 2.09352539 53.35693359 4.07352539 53.35693359 6.11352539 C57.64693359 6.11352539 61.93693359 6.11352539 66.35693359 6.11352539 C66.35693359 21.29352539 66.35693359 36.47352539 66.35693359 52.11352539 C62.06693359 52.11352539 57.77693359 52.11352539 53.35693359 52.11352539 C53.35693359 54.75352539 53.35693359 57.39352539 53.35693359 60.11352539 C45.76803997 60.20639518 38.17920562 60.27737614 30.58987236 60.32077408 C27.06540666 60.34160808 23.54133106 60.36984742 20.01708984 60.4152832 C15.96106316 60.46724495 11.9054433 60.48650506 7.84912109 60.50415039 C6.58953583 60.52479553 5.32995056 60.54544067 4.03219604 60.56671143 C-5.74188974 60.56921232 -5.74188974 60.56921232 -9.36132812 58.40161133 C-14.32330903 53.4258265 -13.98584733 48.13182248 -14.04931641 41.46508789 C-14.06071655 40.53433441 -14.0721167 39.60358093 -14.0838623 38.6446228 C-14.10271389 36.67955032 -14.11581103 34.7144153 -14.12353516 32.74926758 C-14.14295969 29.75497527 -14.20504221 26.7634245 -14.26806641 23.76977539 C-14.28112733 21.85572911 -14.29162795 19.94166329 -14.29931641 18.02758789 C-14.32401001 17.13882965 -14.34870361 16.25007141 -14.37414551 15.3343811 C-14.33308469 9.55906742 -13.14726177 6.5723463 -9.12780762 2.39389038 C-6.13503485 -0.18692401 -3.85915379 -0.00821097 0 0 Z " fill="#930A0A" transform="translate(410.64306640625,295.886474609375)"/>
<path d="M0 0 C7.3281386 -0.09288522 14.65614923 -0.16385817 21.98475838 -0.20724869 C25.38816318 -0.22807946 28.79116375 -0.25631258 32.19433594 -0.30175781 C36.11127806 -0.3537335 40.02805935 -0.37298269 43.9453125 -0.390625 C45.16115021 -0.41127014 46.37698792 -0.43191528 47.62966919 -0.45318604 C58.25169184 -0.45599929 58.25169184 -0.45599929 63 4 C63.91579834 4.81718506 63.91579834 4.81718506 64.85009766 5.65087891 C66.72979638 9.49089187 66.42685011 13.36989292 66.3984375 17.5859375 C66.40130768 18.5204776 66.40417786 19.4550177 66.40713501 20.4178772 C66.40917469 22.3931743 66.40365154 24.36849164 66.39111328 26.34375 C66.37509444 29.35723447 66.39094666 32.36937038 66.41015625 35.3828125 C66.40817309 37.30469045 66.40432792 39.22656756 66.3984375 41.1484375 C66.40451019 42.04549408 66.41058289 42.94255066 66.4168396 43.86679077 C66.359595 48.99728474 65.83707141 52.54994779 63 57 C58.82353873 61.0372459 54.05738786 61.1265981 48.4753418 61.11352539 C47.39459885 61.11344986 46.3138559 61.11337433 45.20036316 61.11329651 C44.0449855 61.10813522 42.88960785 61.10297394 41.69921875 61.09765625 C39.91195122 61.09553383 39.91195122 61.09553383 38.08857727 61.09336853 C34.28819249 61.08777728 30.48786693 61.07522632 26.6875 61.0625 C24.10872481 61.05748387 21.5299487 61.05292116 18.95117188 61.04882812 C12.63409182 61.0378107 6.31705594 61.02055201 0 61 C0 57.7 0 54.4 0 51 C-2.97 51 -5.94 51 -9 51 C-9 35.82 -9 20.64 -9 5 C-6.03 5 -3.06 5 0 5 C0 3.35 0 1.7 0 0 Z " fill="#950F0F" transform="translate(16,211)"/>
<path d="M0 0 C0 15.18 0 30.36 0 46 C-13 46 -13 46 -15 45 C-15 30.48 -15 15.96 -15 1 C-10.51793698 -1.24103151 -5.01109879 0 0 0 Z " fill="#FDFBFB" transform="translate(477,302)"/>
<path d="M0 0 C4.62 0 9.24 0 14 0 C14 14.52 14 29.04 14 44 C9.38 44 4.76 44 0 44 C0 29.48 0 14.96 0 0 Z " fill="#F9F2F2" transform="translate(317,124)"/>
<path d="M0 0 C4.29 0 8.58 0 13 0 C13 14.85 13 29.7 13 45 C8.71 45 4.42 45 0 45 C0 30.15 0 15.3 0 0 Z " fill="#FCF9F9" transform="translate(41,216)"/>
<path d="M0 0 C4.29 0 8.58 0 13 0 C13 14.19 13 28.38 13 43 C8.71 43 4.42 43 0 43 C0 28.81 0 14.62 0 0 Z " fill="#FDFAFA" transform="translate(372,124)"/>
<path d="M0 0 C2.97 0 5.94 0 9 0 C9 15.18 9 30.36 9 46 C6.03 46 3.06 46 0 46 C0 30.82 0 15.64 0 0 Z " fill="#FFFFFF" transform="translate(7,216)"/>
<path d="M0 0 C2.64 0 5.28 0 8 0 C8 14.85 8 29.7 8 45 C5.36 45 2.72 45 0 45 C0 30.15 0 15.3 0 0 Z " fill="#C17272" transform="translate(446,303)"/>
<path d="M0 0 C1.98 0 3.96 0 6 0 C6 14.85 6 29.7 6 45 C4.02 45 2.04 45 0 45 C0 30.15 0 15.3 0 0 Z " fill="#EFDBDB" transform="translate(60,216)"/>
<path d="M0 0 C1.98 0 3.96 0 6 0 C6 14.85 6 29.7 6 45 C4.02 45 2.04 45 0 45 C0 30.15 0 15.3 0 0 Z " fill="#EEDADA" transform="translate(20,216)"/>
<path d="M0 0 C1.98 0 3.96 0 6 0 C6 14.19 6 28.38 6 43 C4.02 43 2.04 43 0 43 C0 28.81 0 14.62 0 0 Z " fill="#E0B9B9" transform="translate(351,124)"/>
<path d="M0 0 C1.98 0 3.96 0 6 0 C6 14.19 6 28.38 6 43 C4.02 43 2.04 43 0 43 C0 28.81 0 14.62 0 0 Z " fill="#E0BABA" transform="translate(391,124)"/>
<path d="M0 0 C1.65 0 3.3 0 5 0 C5 14.52 5 29.04 5 44 C3.35 44 1.7 44 0 44 C0 29.48 0 14.96 0 0 Z " fill="#F5EAEA" transform="translate(425,303)"/>
<path d="M0 0 C1.65 0 3.3 0 5 0 C5 14.52 5 29.04 5 44 C3.35 44 1.7 44 0 44 C0 29.48 0 14.96 0 0 Z " fill="#F4E7E7" transform="translate(340,124)"/>
<path d="M0 0 C1.65 0 3.3 0 5 0 C5 14.19 5 28.38 5 43 C3.35 43 1.7 43 0 43 C0 28.81 0 14.62 0 0 Z " fill="#F5EAEA" transform="translate(303,124)"/>
<path d="M0 0 C1.65 0 3.3 0 5 0 C5 14.19 5 28.38 5 43 C3.35 43 1.7 43 0 43 C0 28.81 0 14.62 0 0 Z " fill="#F5EAEA" transform="translate(280,124)"/>
<path d="M0 0 C1.32 0 2.64 0 4 0 C4 15.18 4 30.36 4 46 C2.68 46 1.36 46 0 46 C0 30.82 0 15.64 0 0 Z " fill="#D6A2A2" transform="translate(31,216)"/>
<path d="M0 0 C1.32 0 2.64 0 4 0 C4 14.85 4 29.7 4 45 C2.68 45 1.36 45 0 45 C0 30.15 0 15.3 0 0 Z " fill="#D7A3A3" transform="translate(438,303)"/>
<path d="M0 0 C1.32 0 2.64 0 4 0 C4 14.52 4 29.04 4 44 C2.68 44 1.36 44 0 44 C0 29.48 0 14.96 0 0 Z " fill="#FBF7F7" transform="translate(448,303)"/>
<path d="M0 0 C1.32 0 2.64 0 4 0 C4 14.52 4 29.04 4 44 C2.68 44 1.36 44 0 44 C0 29.48 0 14.96 0 0 Z " fill="#D6A3A3" transform="translate(362,124)"/>
<path d="M0 0 C1.32 0 2.64 0 4 0 C4 14.52 4 29.04 4 44 C2.68 44 1.36 44 0 44 C0 29.48 0 14.96 0 0 Z " fill="#D6A3A3" transform="translate(293,124)"/>
<path d="M0 0 C0.99 0 1.98 0 3 0 C3 14.52 3 29.04 3 44 C2.01 44 1.02 44 0 44 C0 29.48 0 14.96 0 0 Z " fill="#E2BEBE" transform="translate(416,303)"/>
<path d="M0 0 C0.99 0 1.98 0 3 0 C3 14.19 3 28.38 3 43 C2.01 43 1.02 43 0 43 C0 28.81 0 14.62 0 0 Z " fill="#E2BEBE" transform="translate(271,124)"/>
<path d="M0 0 C0.99 0 1.98 0 3 0 C3 13.86 3 27.72 3 42 C2.01 42 1.02 42 0 42 C0 28.14 0 14.28 0 0 Z " fill="#FEFEFE" transform="translate(392,125)"/>
<path d="M0 0 C0.99 0 1.98 0 3 0 C3 13.86 3 27.72 3 42 C2.01 42 1.02 42 0 42 C0 28.14 0 14.28 0 0 Z " fill="#FEFEFE" transform="translate(352,125)"/>
<path d="M0 0 C0.33 0 0.66 0 1 0 C1 15.18 1 30.36 1 46 C0.67 46 0.34 46 0 46 C0 30.82 0 15.64 0 0 Z " fill="#FFFFFF" transform="translate(0,216)"/>
</svg>
